<svg width="25" height="25" viewBox="0 0 25 25" fill="none" xmlns="http://www.w3.org/2000/svg">
<g clip-path="url(#clip0_169_679)">
<path d="M12.9512 22.5215C7.42817 22.5215 2.95117 18.0445 2.95117 12.5215C2.95117 6.99848 7.42817 2.52148 12.9512 2.52148C18.4742 2.52148 22.9512 6.99848 22.9512 12.5215C22.9512 18.0445 18.4742 22.5215 12.9512 22.5215ZM12.9512 20.5215C15.0729 20.5215 17.1077 19.6786 18.608 18.1783C20.1083 16.678 20.9512 14.6432 20.9512 12.5215C20.9512 10.3998 20.1083 8.36492 18.608 6.86463C17.1077 5.36434 15.0729 4.52148 12.9512 4.52148C10.8294 4.52148 8.79461 5.36434 7.29432 6.86463C5.79403 8.36492 4.95117 10.3998 4.95117 12.5215C4.95117 14.6432 5.79403 16.678 7.29432 18.1783C8.79461 19.6786 10.8294 20.5215 12.9512 20.5215ZM13.9512 12.5215H17.9512V14.5215H11.9512V7.52148H13.9512V12.5215Z" fill="black"/>
</g>
<defs>
<clipPath id="clip0_169_679">
<rect width="24" height="24" fill="white" transform="translate(0.951172 0.521484)"/>
</clipPath>
</defs>
</svg>
