<svg width="363" height="363" viewBox="0 0 363 363" fill="none" xmlns="http://www.w3.org/2000/svg">
<path d="M78.65 246.397V155.191C78.65 149.279 81.5303 143.736 86.3692 140.338L169.404 82.0242C175.664 77.6281 184.008 77.6282 190.268 82.0243L273.303 140.338C278.142 143.736 281.023 149.279 281.023 155.191V246.397C281.023 256.421 272.896 264.547 262.872 264.547H96.801C86.7765 264.547 78.65 256.421 78.65 246.397Z" fill="white"/>
<path d="M105.866 102.243C105.866 93.9459 112.694 87.1182 120.991 87.1182H236.788C245.086 87.1182 251.913 93.9459 251.913 102.243V224.272C251.913 232.569 245.086 239.397 236.788 239.397H120.991C112.694 239.397 105.866 232.569 105.866 224.272V102.243Z" fill="#113333"/>
<path d="M148.363 239.876L93.2606 158.158L180.88 214.171L268.499 158.158L222.609 238.713C219.381 244.38 213.361 247.88 206.84 247.88H163.411C157.376 247.88 151.737 244.88 148.363 239.876Z" fill="white"/>
<path d="M80.7371 246.397V145.635L179.836 211.785L278.935 145.635V246.398C278.935 256.421 270.809 264.547 260.784 264.547H98.8878C88.8634 264.547 80.7371 256.421 80.7371 246.397Z" fill="white"/>
</svg>
